<?xml version="1.0" standalone="no"?>
<!DOCTYPE svg PUBLIC "-//W3C//DTD SVG 20010904//EN"
 "http://www.w3.org/TR/2001/REC-SVG-20010904/DTD/svg10.dtd">
<svg version="1.0" xmlns="http://www.w3.org/2000/svg"
 width="500.000000pt" height="500.000000pt" viewBox="0 0 500.000000 500.000000"
 preserveAspectRatio="xMidYMid meet">

<g transform="translate(0.000000,500.000000) scale(0.100000,-0.100000)"
fill="#000000" stroke="none">
<path d="M1330 2500 l0 -200 35 0 35 0 0 98 c0 108 11 132 61 132 43 0 49 -17
49 -127 l0 -103 35 0 35 0 0 120 c0 115 -1 122 -25 145 -31 32 -91 34 -129 4
l-26 -20 0 75 0 76 -35 0 -35 0 0 -200z"/>
<path d="M1662 2514 c3 -170 5 -187 22 -200 11 -8 35 -14 53 -14 30 0 33 3 33
30 0 16 -3 29 -7 29 -32 -5 -33 2 -33 171 l0 170 -36 0 -35 0 3 -186z"/>
<path d="M2130 2500 l0 -200 35 0 c29 0 35 4 35 22 l0 21 23 -21 c35 -33 98
-30 139 7 32 29 33 31 33 116 0 85 -1 87 -33 116 -40 36 -96 39 -136 8 l-26
-20 0 75 0 76 -35 0 -35 0 0 -200z m184 8 c9 -13 16 -43 16 -69 0 -40 -5 -51
-27 -68 -48 -39 -103 0 -103 73 0 57 22 86 65 86 24 0 39 -7 49 -22z"/>
<path d="M3090 2500 l0 -200 35 0 35 0 0 93 c0 110 13 137 64 137 50 0 56 -13
56 -127 l0 -103 35 0 35 0 0 93 c0 108 -12 161 -43 182 -30 21 -79 19 -110 -5
-14 -11 -28 -20 -31 -20 -3 0 -6 34 -6 75 l0 75 -35 0 -35 0 0 -200z"/>
<path d="M3740 2500 l0 -200 35 0 c29 0 35 4 35 21 l0 20 26 -20 c43 -34 99
-28 141 14 35 35 35 35 32 114 -4 67 -8 83 -28 105 -13 14 -39 29 -58 32 -34
6 -93 -11 -93 -27 0 -5 -4 -9 -10 -9 -6 0 -10 32 -10 75 l0 75 -35 0 -35 0 0
-200z m196 -7 c28 -67 -3 -143 -58 -143 -35 0 -68 44 -68 92 0 62 21 88 71 88
37 0 41 -3 55 -37z"/>
<path d="M735 2671 c-36 -15 -60 -51 -60 -90 0 -63 25 -88 111 -113 86 -26
105 -45 79 -84 -22 -33 -79 -33 -129 1 l-37 25 -19 -22 c-18 -22 -18 -24 2
-45 30 -32 81 -46 150 -41 75 6 108 34 115 102 5 42 3 48 -28 79 -26 26 -48
36 -96 46 -56 11 -83 28 -83 55 0 33 98 49 134 21 17 -13 22 -13 38 2 26 23
22 40 -12 58 -31 16 -131 20 -165 6z"/>
<path d="M2750 2650 c0 -30 1 -30 55 -30 l55 0 0 -160 0 -160 35 0 35 0 0 160
0 160 55 0 c54 0 55 0 55 30 l0 30 -145 0 -145 0 0 -30z"/>
<path d="M1062 2570 c-56 -35 -78 -122 -48 -193 22 -53 50 -71 120 -75 59 -4
66 -2 96 25 l34 30 -28 18 c-19 13 -30 15 -35 7 -22 -37 -99 -32 -120 7 -21
38 -14 41 85 41 l97 0 -5 51 c-7 71 -38 101 -110 106 -41 3 -60 -1 -86 -17z
m109 -40 c11 -6 19 -21 19 -35 0 -24 -3 -25 -60 -25 -66 0 -73 8 -35 45 26 27
46 31 76 15z"/>
<path d="M1861 2573 c-40 -21 -46 -32 -29 -56 12 -16 16 -16 55 4 47 23 83 18
83 -11 0 -22 -20 -35 -71 -44 -58 -10 -89 -40 -89 -85 0 -51 32 -81 88 -81 28
0 48 6 61 19 19 19 20 19 37 0 25 -28 78 -22 82 8 2 14 -3 23 -17 28 -19 6
-21 14 -21 95 0 112 -13 131 -91 137 -39 3 -64 -1 -88 -14z m115 -165 c-9 -45
-25 -59 -60 -56 -27 3 -31 7 -31 33 0 25 5 32 35 42 57 19 63 17 56 -19z"/>
<path d="M2512 2575 c-37 -16 -50 -39 -32 -60 10 -12 17 -11 51 7 33 17 45 19
65 10 47 -22 25 -53 -47 -66 -59 -10 -89 -40 -89 -87 0 -54 27 -79 83 -79 31
0 49 6 62 20 l18 20 19 -20 c20 -21 72 -27 83 -10 9 15 -4 50 -18 47 -8 -1
-14 26 -17 88 -4 50 -9 97 -14 106 -17 38 -103 50 -164 24z m108 -168 c0 -40
-15 -57 -52 -57 -59 0 -54 61 7 79 45 14 45 14 45 -22z"/>
<path d="M3495 2576 c-51 -22 -68 -51 -73 -118 -8 -104 40 -158 141 -158 34 0
53 6 76 26 37 31 38 38 9 51 -18 8 -29 6 -50 -10 -38 -28 -87 -14 -105 31
l-13 32 95 0 95 0 0 40 c0 54 -17 86 -55 105 -40 18 -80 19 -120 1z m97 -53
c10 -9 18 -24 18 -35 0 -15 -8 -18 -60 -18 -53 0 -60 2 -60 19 0 23 36 51 64
51 11 0 28 -7 38 -17z"/>
<path d="M4142 2575 c-62 -27 -90 -144 -51 -216 30 -56 134 -77 197 -39 36 22
41 44 14 59 -12 7 -24 4 -41 -10 -32 -26 -67 -24 -96 6 -47 46 -36 55 70 55
l95 0 0 35 c0 99 -91 152 -188 110z m108 -55 c38 -38 27 -50 -45 -50 -36 0
-65 3 -65 6 0 11 23 49 34 56 20 14 56 8 76 -12z"/>
</g>
</svg>
